<svg xmlns="http://www.w3.org/2000/svg" xmlns:xlink="http://www.w3.org/1999/xlink" viewBox="0 0 663.6363252792171 336.96967749337415" width="663.6363252792171" height="336.96967749337415"><path d="M 461.108,71.837 C 459.756,69.578 459.593,69.716 458.078,67.595" stroke-width="5.441" stroke="black" fill="none" stroke-linecap="round"></path><path d="M 458.078,67.595 C 456.259,65.777 456.422,65.639 454.441,63.958" stroke-width="4.554" stroke="black" fill="none" stroke-linecap="round"></path><path d="M 454.441,63.958 C 452.776,61.964 452.623,62.140 450.805,60.322" stroke-width="4.387" stroke="black" fill="none" stroke-linecap="round"></path><path d="M 450.805,60.322 C 447.208,57.541 447.321,57.419 443.532,54.867" stroke-width="3.855" stroke="black" fill="none" stroke-linecap="round"></path><path d="M 443.532,54.867 C 440.777,52.221 440.541,52.692 437.472,50.625" stroke-width="3.900" stroke="black" fill="none" stroke-linecap="round"></path><path d="M 437.472,50.625 C 431.760,48.368 431.989,47.978 425.956,46.383" stroke-width="3.434" stroke="black" fill="none" stroke-linecap="round"></path><path d="M 425.956,46.383 C 420.289,44.208 420.245,44.429 414.441,42.746" stroke-width="3.331" stroke="black" fill="none" stroke-linecap="round"></path><path d="M 414.441,42.746 C 408.123,41.054 408.168,41.178 401.714,40.322" stroke-width="3.172" stroke="black" fill="none" stroke-linecap="round"></path><path d="M 401.714,40.322 C 397.379,39.707 397.517,39.842 393.229,40.322" stroke-width="3.557" stroke="black" fill="none" stroke-linecap="round"></path><path d="M 393.229,40.322 C 389.064,41.058 389.197,40.919 385.350,42.746" stroke-width="4.185" stroke="black" fill="none" stroke-linecap="round"></path><path d="M 385.350,42.746 C 382.124,44.043 382.397,44.089 379.896,46.383" stroke-width="4.096" stroke="black" fill="none" stroke-linecap="round"></path><path d="M 379.896,46.383 C 376.486,50.875 376.064,50.406 373.229,55.473" stroke-width="4.163" stroke="black" fill="none" stroke-linecap="round"></path><path d="M 373.229,55.473 C 371.343,58.157 371.335,58.148 369.593,60.928" stroke-width="4.090" stroke="black" fill="none" stroke-linecap="round"></path><path d="M 369.593,60.928 C 367.816,63.984 367.706,63.915 365.956,66.989" stroke-width="4.008" stroke="black" fill="none" stroke-linecap="round"></path><path d="M 365.956,66.989 C 363.363,70.082 363.877,70.348 361.714,73.655" stroke-width="3.889" stroke="black" fill="none" stroke-linecap="round"></path><path d="M 361.714,73.655 C 358.308,82.112 357.909,81.900 355.047,90.625" stroke-width="2.985" stroke="black" fill="none" stroke-linecap="round"></path><path d="M 355.047,90.625 C 352.799,96.340 352.853,96.355 350.805,102.140" stroke-width="3.177" stroke="black" fill="none" stroke-linecap="round"></path><path d="M 350.805,102.140 C 349.843,106.180 349.465,106.037 348.381,110.019" stroke-width="3.625" stroke="black" fill="none" stroke-linecap="round"></path><path d="M 348.381,110.019 C 347.478,112.644 347.419,112.543 345.956,114.867" stroke-width="4.010" stroke="black" fill="none" stroke-linecap="round"></path><path d="M 345.956,114.867 C 343.052,118.074 343.539,118.401 340.502,121.534" stroke-width="4.333" stroke="black" fill="none" stroke-linecap="round"></path><path d="M 340.502,121.534 C 337.790,126.383 338.809,123.831 337.472,126.383" stroke-width="4.646" stroke="black" fill="none" stroke-linecap="round"></path><path d="M 337.472,126.383 C 337.921,123.663 337.184,126.383 339.290,121.534" stroke-width="5.166" stroke="black" fill="none" stroke-linecap="round"></path><path d="M 339.290,121.534 C 340.884,119.429 340.649,119.420 342.926,117.898" stroke-width="4.441" stroke="black" fill="none" stroke-linecap="round"></path><path d="M 342.926,117.898 C 345.769,115.640 345.733,115.793 348.987,114.261" stroke-width="4.152" stroke="black" fill="none" stroke-linecap="round"></path><path d="M 348.987,114.261 C 352.272,112.578 352.133,112.913 355.653,112.443" stroke-width="4.090" stroke="black" fill="none" stroke-linecap="round"></path><path d="M 355.653,112.443 C 360.189,112.282 359.848,112.275 364.138,113.655" stroke-width="4.364" stroke="black" fill="none" stroke-linecap="round"></path><path d="M 364.138,113.655 C 366.648,115.983 367.159,114.706 369.593,117.292" stroke-width="4.146" stroke="black" fill="none" stroke-linecap="round"></path><path d="M 369.593,117.292 C 372.501,117.455 372.103,118.407 375.047,118.504" stroke-width="4.615" stroke="black" fill="none" stroke-linecap="round"></path><path d="M 375.047,118.504 C 377.838,119.613 377.653,119.577 379.896,121.534" stroke-width="4.917" stroke="black" fill="none" stroke-linecap="round"></path><path d="M 379.896,121.534 C 382.117,124.190 382.383,123.856 384.138,126.989" stroke-width="4.934" stroke="black" fill="none" stroke-linecap="round"></path><path d="M 384.138,126.989 C 386.265,129.549 386.056,129.644 387.775,132.443" stroke-width="4.763" stroke="black" fill="none" stroke-linecap="round"></path><path d="M 387.775,132.443 C 389.548,136.705 389.901,136.519 391.411,140.928" stroke-width="3.921" stroke="black" fill="none" stroke-linecap="round"></path><path d="M 391.411,140.928 C 395.289,146.742 394.093,147.008 396.866,153.049" stroke-width="3.286" stroke="black" fill="none" stroke-linecap="round"></path><path d="M 396.866,153.049 C 396.866,157.898 398.016,157.651 396.866,162.746" stroke-width="3.996" stroke="black" fill="none" stroke-linecap="round"></path><path d="M 396.866,162.746 C 396.985,166.689 396.866,166.686 396.866,170.625" stroke-width="3.888" stroke="black" fill="none" stroke-linecap="round"></path><path d="M 396.866,170.625 C 396.400,176.682 396.682,176.689 396.259,182.746" stroke-width="3.503" stroke="black" fill="none" stroke-linecap="round"></path><path d="M 396.259,182.746 C 397.054,189.797 396.097,189.712 396.259,196.686" stroke-width="3.318" stroke="black" fill="none" stroke-linecap="round"></path><path d="M 396.259,196.686 C 395.268,205.760 395.236,205.555 392.623,214.261" stroke-width="2.821" stroke="black" fill="none" stroke-linecap="round"></path><path d="M 392.623,214.261 C 390.429,219.239 391.025,219.397 387.775,223.958" stroke-width="3.271" stroke="black" fill="none" stroke-linecap="round"></path><path d="M 387.775,223.958 C 385.130,229.100 384.975,228.936 381.714,233.655" stroke-width="3.561" stroke="black" fill="none" stroke-linecap="round"></path><path d="M 381.714,233.655 C 378.793,237.781 378.767,237.585 375.047,240.928" stroke-width="4.067" stroke="black" fill="none" stroke-linecap="round"></path><path d="M 375.047,240.928 C 370.920,243.849 371.218,244.145 366.562,246.383" stroke-width="3.614" stroke="black" fill="none" stroke-linecap="round"></path><path d="M 366.562,246.383 C 358.013,251.734 357.890,251.425 348.987,256.080" stroke-width="2.750" stroke="black" fill="none" stroke-linecap="round"></path><path d="M 348.987,256.080 C 341.272,258.801 341.649,259.613 333.835,262.140" stroke-width="2.833" stroke="black" fill="none" stroke-linecap="round"></path><path d="M 333.835,262.140 C 326.796,266.349 326.424,265.468 319.290,269.413" stroke-width="2.862" stroke="black" fill="none" stroke-linecap="round"></path><path d="M 319.290,269.413 C 311.857,272.445 311.947,272.410 304.138,274.261" stroke-width="2.768" stroke="black" fill="none" stroke-linecap="round"></path><path d="M 304.138,274.261 C 296.311,276.148 296.403,276.082 288.381,276.686" stroke-width="2.861" stroke="black" fill="none" stroke-linecap="round"></path><path d="M 288.381,276.686 C 278.291,277.663 278.432,277.360 268.381,276.686" stroke-width="2.530" stroke="black" fill="none" stroke-linecap="round"></path><path d="M 268.381,276.686 C 256.878,274.493 256.776,275.542 245.350,272.443" stroke-width="2.352" stroke="black" fill="none" stroke-linecap="round"></path><path d="M 245.350,272.443 C 229.558,269.900 229.606,269.644 213.835,266.989" stroke-width="1.997" stroke="black" fill="none" stroke-linecap="round"></path><path d="M 213.835,266.989 C 204.874,265.764 205.012,265.355 196.259,263.352" stroke-width="2.414" stroke="black" fill="none" stroke-linecap="round"></path><path d="M 196.259,263.352 C 189.883,260.962 189.722,261.522 183.532,258.504" stroke-width="2.870" stroke="black" fill="none" stroke-linecap="round"></path><path d="M 183.532,258.504 C 180.193,257.821 180.489,257.326 177.472,256.080" stroke-width="3.575" stroke="black" fill="none" stroke-linecap="round"></path><path d="M 177.472,256.080 C 172.809,252.579 172.617,252.973 168.381,248.807" stroke-width="3.406" stroke="black" fill="none" stroke-linecap="round"></path><path d="M 168.381,248.807 C 164.286,245.848 164.628,245.610 161.108,242.140" stroke-width="4.004" stroke="black" fill="none" stroke-linecap="round"></path><path d="M 161.108,242.140 C 159.358,239.067 158.831,239.484 157.472,236.080" stroke-width="3.982" stroke="black" fill="none" stroke-linecap="round"></path><path d="M 157.472,236.080 C 155.349,233.515 155.722,233.309 153.835,230.625" stroke-width="4.036" stroke="black" fill="none" stroke-linecap="round"></path><path d="M 153.835,230.625 C 152.371,226.967 152.016,227.151 150.805,223.352" stroke-width="3.845" stroke="black" fill="none" stroke-linecap="round"></path><path d="M 150.805,223.352 C 147.953,218.034 148.432,217.876 145.956,212.443" stroke-width="3.450" stroke="black" fill="none" stroke-linecap="round"></path><path d="M 145.956,212.443 C 145.066,209.441 144.923,209.549 144.744,206.383" stroke-width="3.854" stroke="black" fill="none" stroke-linecap="round"></path><path d="M 144.744,206.383 C 144.608,203.649 144.460,203.683 144.744,200.928" stroke-width="4.167" stroke="black" fill="none" stroke-linecap="round"></path><path d="M 144.744,200.928 C 144.347,197.396 144.911,197.589 145.350,194.261" stroke-width="4.074" stroke="black" fill="none" stroke-linecap="round"></path><path d="M 145.350,194.261 C 147.763,190.147 146.772,189.820 149.593,185.776" stroke-width="3.678" stroke="black" fill="none" stroke-linecap="round"></path><path d="M 149.593,185.776 C 151.887,176.349 153.218,177.117 156.259,168.201" stroke-width="2.910" stroke="black" fill="none" stroke-linecap="round"></path><path d="M 156.259,168.201 C 159.285,164.205 158.554,163.924 162.926,160.928" stroke-width="3.287" stroke="black" fill="none" stroke-linecap="round"></path><path d="M 162.926,160.928 C 165.483,158.798 165.346,158.751 168.381,157.292" stroke-width="3.749" stroke="black" fill="none" stroke-linecap="round"></path><path d="M 168.381,157.292 C 173.036,154.548 173.059,154.859 178.078,153.049" stroke-width="3.547" stroke="black" fill="none" stroke-linecap="round"></path><path d="M 178.078,153.049 C 184.407,151.609 184.249,151.215 190.805,150.625" stroke-width="3.228" stroke="black" fill="none" stroke-linecap="round"></path><path d="M 190.805,150.625 C 196.247,149.790 196.225,149.791 201.714,149.413" stroke-width="3.359" stroke="black" fill="none" stroke-linecap="round"></path><path d="M 201.714,149.413 C 205.325,148.496 205.035,149.184 208.381,149.413" stroke-width="3.809" stroke="black" fill="none" stroke-linecap="round"></path><path d="M 208.381,149.413 C 211.216,151.085 211.386,150.314 213.835,153.049" stroke-width="4.098" stroke="black" fill="none" stroke-linecap="round"></path><path d="M 213.835,153.049 C 217.276,155.658 217.277,155.630 220.502,158.504" stroke-width="4.364" stroke="black" fill="none" stroke-linecap="round"></path><path d="M 220.502,158.504 C 222.753,160.010 222.428,160.203 224.138,162.140" stroke-width="4.332" stroke="black" fill="none" stroke-linecap="round"></path><path d="M 224.138,162.140 C 226.643,166.224 226.693,166.070 228.381,170.625" stroke-width="3.800" stroke="black" fill="none" stroke-linecap="round"></path><path d="M 228.381,170.625 C 231.027,177.830 231.189,177.739 233.229,185.170" stroke-width="3.168" stroke="black" fill="none" stroke-linecap="round"></path><path d="M 233.229,185.170 C 237.042,195.938 236.482,196.012 239.290,206.989" stroke-width="2.598" stroke="black" fill="none" stroke-linecap="round"></path><path d="M 239.290,206.989 C 240.217,213.944 240.679,213.817 240.502,220.928" stroke-width="2.921" stroke="black" fill="none" stroke-linecap="round"></path><path d="M 240.502,220.928 C 241.282,228.887 240.823,228.793 240.502,236.686" stroke-width="2.860" stroke="black" fill="none" stroke-linecap="round"></path><path d="M 240.502,236.686 C 239.164,244.000 239.767,244.039 237.472,251.231" stroke-width="2.958" stroke="black" fill="none" stroke-linecap="round"></path><path d="M 237.472,251.231 C 235.675,258.206 235.831,258.242 233.835,265.170" stroke-width="3.072" stroke="black" fill="none" stroke-linecap="round"></path><path d="M 233.835,265.170 C 231.529,274.295 231.432,274.267 228.987,283.352" stroke-width="2.839" stroke="black" fill="none" stroke-linecap="round"></path><path d="M 228.987,283.352 C 226.782,291.607 226.681,291.567 224.138,299.716" stroke-width="2.817" stroke="black" fill="none" stroke-linecap="round"></path><path d="M 224.138,299.716 C 221.270,309.660 222.237,305.546 219.896,311.231" stroke-width="3.117" stroke="black" fill="none" stroke-linecap="round"></path><path d="M 219.896,311.231 C 219.603,307.879 219.149,312.084 219.896,304.564" stroke-width="4.335" stroke="black" fill="none" stroke-linecap="round"></path><path d="M 219.896,304.564 C 220.401,297.516 220.512,297.576 221.714,290.625" stroke-width="3.372" stroke="black" fill="none" stroke-linecap="round"></path><path d="M 221.714,290.625 C 222.822,284.729 222.826,284.788 224.744,279.110" stroke-width="3.381" stroke="black" fill="none" stroke-linecap="round"></path><path d="M 224.744,279.110 C 226.198,272.750 226.761,273.214 229.593,267.595" stroke-width="3.283" stroke="black" fill="none" stroke-linecap="round"></path><path d="M 229.593,267.595 C 235.471,261.025 234.380,260.326 241.108,254.261" stroke-width="2.900" stroke="black" fill="none" stroke-linecap="round"></path><path d="M 241.108,254.261 C 242.623,251.534 243.047,251.934 244.744,249.413" stroke-width="3.707" stroke="black" fill="none" stroke-linecap="round"></path><path d="M 244.744,249.413 C 247.475,245.614 246.866,247.292 249.593,245.777" stroke-width="4.381" stroke="black" fill="none" stroke-linecap="round"></path><path d="M 249.593,245.777 C 251.470,247.713 251.415,245.917 252.623,250.019" stroke-width="4.936" stroke="black" fill="none" stroke-linecap="round"></path><path d="M 252.623,250.019 C 253.821,252.683 253.894,252.562 254.441,255.473" stroke-width="4.399" stroke="black" fill="none" stroke-linecap="round"></path><path d="M 254.441,255.473 C 254.911,258.192 255.033,258.137 255.047,260.928" stroke-width="4.295" stroke="black" fill="none" stroke-linecap="round"></path><path d="M 255.047,260.928 C 255.192,264.267 255.214,264.252 255.047,267.595" stroke-width="4.587" stroke="black" fill="none" stroke-linecap="round"></path><path d="M 255.047,267.595 C 253.699,274.719 254.889,271.237 254.441,274.867" stroke-width="4.618" stroke="black" fill="none" stroke-linecap="round"></path><path d="M 254.441,274.867 C 256.248,271.528 255.214,275.022 258.078,268.201" stroke-width="5.029" stroke="black" fill="none" stroke-linecap="round"></path><path d="M 258.078,268.201 C 259.545,265.446 259.581,265.467 261.108,262.746" stroke-width="4.352" stroke="black" fill="none" stroke-linecap="round"></path><path d="M 261.108,262.746 C 262.634,259.500 262.878,259.688 264.744,256.686" stroke-width="4.080" stroke="black" fill="none" stroke-linecap="round"></path><path d="M 264.744,256.686 C 268.240,250.173 267.179,253.439 270.199,250.625" stroke-width="3.881" stroke="black" fill="none" stroke-linecap="round"></path><path d="M 270.199,250.625 C 271.625,254.512 272.179,251.082 272.623,258.504" stroke-width="4.597" stroke="black" fill="none" stroke-linecap="round"></path><path d="M 272.623,258.504 C 273.637,261.800 273.443,261.785 273.835,265.170" stroke-width="4.125" stroke="black" fill="none" stroke-linecap="round"></path><path d="M 273.835,265.170 C 273.519,272.155 274.243,272.103 273.835,279.110" stroke-width="3.407" stroke="black" fill="none" stroke-linecap="round"></path><path d="M 273.835,279.110 C 273.403,290.193 274.125,285.488 275.047,291.837" stroke-width="3.206" stroke="black" fill="none" stroke-linecap="round"></path><path d="M 275.047,291.837 C 276.988,288.084 276.130,292.920 279.290,284.564" stroke-width="4.341" stroke="black" fill="none" stroke-linecap="round"></path><path d="M 279.290,284.564 C 282.103,280.138 282.140,280.205 285.350,276.080" stroke-width="3.641" stroke="black" fill="none" stroke-linecap="round"></path><path d="M 285.350,276.080 C 287.072,271.939 286.952,274.078 288.987,272.443" stroke-width="4.090" stroke="black" fill="none" stroke-linecap="round"></path><path d="M 288.987,272.443 C 294.142,274.953 292.830,273.454 296.866,279.110" stroke-width="4.609" stroke="black" fill="none" stroke-linecap="round"></path><path d="M 296.866,279.110 C 299.161,284.464 299.900,283.741 300.502,290.019" stroke-width="3.717" stroke="black" fill="none" stroke-linecap="round"></path><path d="M 300.502,290.019 C 300.425,293.439 301.282,293.252 301.108,296.686" stroke-width="3.977" stroke="black" fill="none" stroke-linecap="round"></path><path d="M 301.108,296.686 C 301.161,300.504 301.637,299.197 302.926,301.534" stroke-width="4.164" stroke="black" fill="none" stroke-linecap="round"></path><path d="M 302.926,301.534 C 306.635,302.674 304.797,302.625 308.381,300.928" stroke-width="4.770" stroke="black" fill="none" stroke-linecap="round"></path><path d="M 308.381,300.928 C 311.072,295.757 312.089,297.219 313.835,290.625" stroke-width="3.667" stroke="black" fill="none" stroke-linecap="round"></path><path d="M 313.835,290.625 C 316.932,283.555 317.435,283.939 321.108,277.292" stroke-width="3.213" stroke="black" fill="none" stroke-linecap="round"></path><path d="M 321.108,277.292 C 323.088,273.399 322.993,274.464 325.956,272.443" stroke-width="3.731" stroke="black" fill="none" stroke-linecap="round"></path><path d="M 325.956,272.443 C 329.052,274.201 328.542,271.581 332.017,273.655" stroke-width="4.715" stroke="black" fill="none" stroke-linecap="round"></path><path d="M 332.017,273.655 C 340.445,270.737 340.567,272.080 348.987,268.201" stroke-width="3.977" stroke="black" fill="none" stroke-linecap="round"></path><path d="M 348.987,268.201 C 359.754,264.388 359.839,264.979 370.805,262.140" stroke-width="2.660" stroke="black" fill="none" stroke-linecap="round"></path></svg>